<svg version="1.1" id="Layer_1" xmlns="http://www.w3.org/2000/svg" xmlns:xlink="http://www.w3.org/1999/xlink" x="0px" y="0px"
	 width="100%" viewBox="0 0 1080 1080" enable-background="new 0 0 1080 1080" xml:space="preserve">
<path fill="#FFFFFF" opacity="1.000000" stroke="none" 
	d="
M600.000000,1081.000000 
	C400.023010,1081.000000 200.546036,1081.000000 1.034532,1081.000000 
	C1.034532,721.064575 1.034532,361.129120 1.034532,1.096845 
	C360.893860,1.096845 720.787720,1.096845 1080.840820,1.096845 
	C1080.840820,360.999939 1080.840820,720.999939 1080.840820,1081.000000 
	C920.795349,1081.000000 760.647644,1081.000000 600.000000,1081.000000 
M906.500000,586.104614 
	C924.828674,586.110901 943.157410,586.118530 961.486084,586.122864 
	C970.378479,586.125000 976.910034,581.628418 979.407288,573.119995 
	C981.786011,565.015686 983.684753,556.768616 985.720276,548.565918 
	C991.670837,524.586426 997.537903,500.586182 1003.537598,476.619080 
	C1005.650818,468.177490 1001.765564,462.826508 993.204041,462.826324 
	C962.877991,462.825714 932.549866,463.028870 902.227051,462.717499 
	C893.168518,462.624542 885.320984,463.847626 880.529846,472.950500 
	C877.971375,464.291229 876.038940,462.830994 867.683838,462.830841 
	C837.857666,462.830261 808.028015,463.085266 778.207397,462.679718 
	C769.612122,462.562866 762.403320,463.945435 757.174072,471.225677 
	C757.038940,471.413879 756.601318,471.384827 755.936951,471.546722 
	C754.364258,463.925751 748.943604,462.707703 742.059448,462.742737 
	C710.903320,462.901367 679.743225,462.541199 648.590942,462.908203 
	C644.375793,462.957886 640.066895,465.817230 636.073730,467.898041 
	C634.739624,468.593292 634.255005,470.918671 633.382019,472.498840 
	C632.773804,472.180664 632.165588,471.862488 631.557373,471.544312 
	C629.995972,464.003540 625.018066,462.688416 618.439148,462.736206 
	C587.781494,462.958771 557.121216,462.832520 526.461914,462.830109 
	C514.709961,462.829163 509.147797,467.043152 506.232086,478.562866 
	C498.326599,509.796692 490.483368,541.046448 482.689697,572.308350 
	C480.641541,580.523926 485.086792,586.090149 493.568359,586.098083 
	C523.061279,586.125671 552.555908,585.929993 582.046204,586.208130 
	C591.328308,586.295654 599.987244,585.914734 606.301331,575.532532 
	C607.812622,585.979492 614.232788,586.173340 621.156555,586.146484 
	C651.815430,586.027527 682.475159,586.047241 713.134094,586.149170 
	C718.670044,586.167542 723.255249,584.424438 726.837402,580.302673 
	C727.882202,579.100525 728.352783,577.399292 729.086548,575.926819 
	C732.783203,583.923096 735.690430,586.118774 742.236023,586.119141 
	C772.395447,586.120911 802.558167,585.855347 832.712158,586.254761 
	C841.156616,586.366577 848.115051,584.706116 853.463867,577.973145 
	C853.600830,577.800720 854.079224,577.899414 855.033264,577.816406 
	C856.767334,586.003967 863.058838,586.335083 870.010132,586.178040 
	C881.834595,585.910767 893.669495,586.104675 906.500000,586.104614 
M422.491394,586.104492 
	C425.157227,586.103882 427.823059,586.113220 430.488861,586.100952 
	C439.140442,586.061218 446.309113,580.709595 448.419922,572.331848 
	C456.439240,540.503235 464.391449,508.657715 472.290771,476.799164 
	C474.453003,468.078766 470.256744,462.844635 461.338837,462.841461 
	C430.514557,462.830505 399.687256,463.071503 368.867920,462.680237 
	C360.484009,462.573822 354.117096,465.059113 349.112549,472.181549 
	C348.230621,470.443451 347.521729,469.164429 346.919403,467.837006 
	C345.200897,464.049774 342.238434,462.570465 338.151031,462.586121 
	C305.997223,462.709198 273.842651,462.873932 241.689514,462.741089 
	C235.372162,462.714996 230.897766,465.334167 227.032440,469.796082 
	C226.235672,470.715820 225.482285,471.673126 224.446594,472.931915 
	C223.043259,464.976288 220.476395,462.839081 212.863800,462.837463 
	C181.039810,462.830627 149.211853,463.108582 117.394600,462.645996 
	C109.451019,462.530487 101.224388,469.406586 99.333275,477.043060 
	C91.491867,508.707214 83.606766,540.360535 75.717789,572.012939 
	C73.584641,580.571594 77.817871,586.111755 86.608101,586.112732 
	C116.599274,586.116211 146.592514,585.905762 176.580292,586.221863 
	C185.032852,586.310913 192.439758,585.265747 197.758377,577.981506 
	C197.947952,577.721863 198.650650,577.836975 199.432709,577.736511 
	C201.083313,584.812073 206.056534,586.232788 212.608643,586.192017 
	C243.764938,585.998230 274.924347,586.239624 306.079071,585.947693 
	C309.952179,585.911438 314.004364,584.019104 317.582703,582.212585 
	C319.416901,581.286621 320.386505,578.648010 321.746826,576.783447 
	C322.234863,576.863647 322.722900,576.943787 323.210938,577.023987 
	C325.949036,586.561707 333.058960,586.243713 340.518738,586.186218 
	C367.509186,585.978149 394.502258,586.104492 422.491394,586.104492 
z"/>
<path fill="#4B8ABF" opacity="1.000000" stroke="none" 
	d="
M906.000000,586.104675 
	C893.669495,586.104675 881.834595,585.910767 870.010132,586.178040 
	C863.058838,586.335083 856.767334,586.003967 855.033264,577.816406 
	C854.079224,577.899414 853.600830,577.800720 853.463867,577.973145 
	C848.115051,584.706116 841.156616,586.366577 832.712158,586.254761 
	C802.558167,585.855347 772.395447,586.120911 742.236023,586.119141 
	C735.690430,586.118774 732.783203,583.923096 729.086548,575.926819 
	C728.352783,577.399292 727.882202,579.100525 726.837402,580.302673 
	C723.255249,584.424438 718.670044,586.167542 713.134094,586.149170 
	C682.475159,586.047241 651.815430,586.027527 621.156555,586.146484 
	C614.232788,586.173340 607.812622,585.979492 606.301331,575.532532 
	C599.987244,585.914734 591.328308,586.295654 582.046204,586.208130 
	C552.555908,585.929993 523.061279,586.125671 493.568359,586.098083 
	C485.086792,586.090149 480.641541,580.523926 482.689697,572.308350 
	C490.483368,541.046448 498.326599,509.796692 506.232086,478.562866 
	C509.147797,467.043152 514.709961,462.829163 526.461914,462.830109 
	C557.121216,462.832520 587.781494,462.958771 618.439148,462.736206 
	C625.018066,462.688416 629.995972,464.003540 631.557373,471.544312 
	C632.165588,471.862488 632.773804,472.180664 633.382019,472.498840 
	C634.255005,470.918671 634.739624,468.593292 636.073730,467.898041 
	C640.066895,465.817230 644.375793,462.957886 648.590942,462.908203 
	C679.743225,462.541199 710.903320,462.901367 742.059448,462.742737 
	C748.943604,462.707703 754.364258,463.925751 755.936951,471.546722 
	C756.601318,471.384827 757.038940,471.413879 757.174072,471.225677 
	C762.403320,463.945435 769.612122,462.562866 778.207397,462.679718 
	C808.028015,463.085266 837.857666,462.830261 867.683838,462.830841 
	C876.038940,462.830994 877.971375,464.291229 880.529846,472.950500 
	C885.320984,463.847626 893.168518,462.624542 902.227051,462.717499 
	C932.549866,463.028870 962.877991,462.825714 993.204041,462.826324 
	C1001.765564,462.826508 1005.650818,468.177490 1003.537598,476.619080 
	C997.537903,500.586182 991.670837,524.586426 985.720276,548.565918 
	C983.684753,556.768616 981.786011,565.015686 979.407288,573.119995 
	C976.910034,581.628418 970.378479,586.125000 961.486084,586.122864 
	C943.157410,586.118530 924.828674,586.110901 906.000000,586.104675 
M566.320312,512.062256 
	C565.924744,513.051392 565.529236,514.040588 565.000732,515.600891 
	C564.696167,516.088989 564.391602,516.577087 563.369873,517.116638 
	C562.030334,519.825867 560.690796,522.535156 559.300232,525.289368 
	C559.300232,525.289368 559.294800,525.357178 558.537109,525.243408 
	C556.525574,525.863953 554.761841,526.238953 554.863953,523.068298 
	C554.887146,522.348694 553.975525,521.598938 553.323853,519.983032 
	C553.265076,516.667786 553.206360,513.352539 553.437683,509.823090 
	C553.329773,509.539520 553.221802,509.255951 553.020508,508.182312 
	C553.000366,507.121979 552.980225,506.061615 553.412659,504.695770 
	C553.223999,504.125885 553.035339,503.556000 552.752747,502.325256 
	C552.621155,501.230835 552.489563,500.136383 552.778809,498.574615 
	C552.411133,496.115906 552.043396,493.657227 551.291138,490.699036 
	C550.203247,489.448364 549.115417,488.197693 547.964722,486.378998 
	C547.307678,486.250580 546.650635,486.122162 545.269958,485.934814 
	C544.552368,485.829681 543.834778,485.724518 542.843933,484.999390 
	C540.147949,483.532349 537.903259,483.342072 536.668701,487.448669 
	C536.341614,487.595886 536.014526,487.743103 535.355774,488.018341 
	C535.145691,488.149811 535.003174,488.333649 534.403076,489.043213 
	C532.882629,491.184784 530.930969,493.140350 529.913452,495.498932 
	C524.377930,508.330261 519.073975,521.261353 513.687866,534.157166 
	C511.058319,540.452881 508.065002,546.630676 505.976959,553.100830 
	C505.197540,555.515991 505.560974,559.877563 507.135681,561.076538 
	C509.116669,562.584961 513.266113,562.704407 515.752869,561.671997 
	C518.155579,560.674622 520.179749,557.713562 521.405334,555.153198 
	C523.911621,549.917542 525.748596,544.363220 527.901611,538.956238 
	C531.056091,531.034180 534.246094,523.126221 537.420959,515.212280 
	C538.727966,517.155579 538.923340,518.879089 538.985046,520.607422 
	C539.388916,531.919067 539.752441,543.232239 540.152283,554.544067 
	C540.411316,561.871216 545.282043,565.159973 551.824646,561.844727 
	C554.408325,560.535522 556.666199,557.802246 558.125000,555.188538 
	C564.612000,543.565674 570.755798,531.751160 577.765869,520.090271 
	C578.453735,522.047791 579.141602,524.005310 579.860596,526.693054 
	C579.771240,527.416687 579.681946,528.140320 579.128479,529.034607 
	C579.262939,529.739929 579.397400,530.445312 579.599426,531.716980 
	C579.526123,532.087769 579.452820,532.458557 578.854004,533.122253 
	C578.832947,534.399902 578.811890,535.677551 578.819702,537.682190 
	C578.624878,539.115234 578.430115,540.548279 577.655701,542.396118 
	C577.723083,543.934326 577.790405,545.472473 577.876221,547.788635 
	C577.705505,548.803650 577.534729,549.818665 576.799316,551.237854 
	C576.910217,553.816284 577.021118,556.394714 577.332703,559.586060 
	C577.864258,560.244507 578.395752,560.903015 579.080444,561.811768 
	C579.213562,561.964417 579.378723,562.063904 580.229919,562.321594 
	C580.440857,562.411011 580.651794,562.500366 581.128174,563.144104 
	C583.410645,564.868958 585.637390,566.208557 587.620667,561.952637 
	C588.160156,561.667603 588.699707,561.382507 589.593567,560.994141 
	C589.822449,560.878235 589.984619,560.701233 590.479431,559.966125 
	C590.778503,559.664185 591.077576,559.362183 591.729919,558.835205 
	C591.936401,558.620300 592.033691,558.363953 592.251038,557.363708 
	C592.691284,555.957458 593.131592,554.551270 594.141785,552.847717 
	C594.139282,551.244812 594.136841,549.641907 594.087585,547.299561 
	C594.181091,546.569580 594.274597,545.839600 595.030334,544.792786 
	C595.056824,541.521301 595.083252,538.249817 595.112122,534.229736 
	C595.352478,532.494019 595.592834,530.758301 596.435486,528.490540 
	C596.605652,523.994385 596.775818,519.498169 596.927979,514.340393 
	C596.980042,513.903442 597.032166,513.466431 597.829956,512.796692 
	C597.947510,508.546967 598.065125,504.297272 598.133484,499.309601 
	C598.207153,498.576385 598.280823,497.843201 598.930481,496.890320 
	C598.803406,495.545319 598.676270,494.200348 598.355103,492.238800 
	C598.290955,491.813354 598.226807,491.387939 598.626526,490.512451 
	C597.598511,485.809021 593.595825,483.541016 589.167725,485.727325 
	C588.446350,485.819458 587.724976,485.911560 586.548340,485.483795 
	C584.077271,484.687317 582.392700,485.228699 581.675659,488.564850 
	C580.771057,489.376678 579.866516,490.188507 578.293396,491.098663 
	C577.951904,491.839844 577.610474,492.581055 577.095337,493.886871 
	C576.921936,494.239471 576.748474,494.592072 576.251587,495.148499 
	C576.056946,495.337372 575.960876,495.567444 575.817627,496.336487 
	C575.601990,496.601685 575.386292,496.866882 574.425110,497.183929 
	C574.054077,498.237732 573.683044,499.291565 573.105896,500.988220 
	C571.989258,502.963165 570.872620,504.938141 569.087708,507.081757 
	C568.381348,508.705505 567.674988,510.329224 567.004944,511.991364 
	C567.004944,511.991364 566.954346,511.977020 566.320312,512.062256 
M788.950562,554.299377 
	C790.807068,547.207458 792.663574,540.115540 794.859619,531.726562 
	C800.500916,541.449707 805.367371,549.949585 810.349426,558.381104 
	C813.210327,563.222656 816.777222,564.139343 821.709412,561.550232 
	C827.253113,558.640137 828.512390,553.589539 824.969849,548.216125 
	C821.268677,542.602051 817.510193,537.025818 814.084839,531.894531 
	C819.954041,528.597046 825.513855,526.237732 830.163025,522.686218 
	C837.543091,517.048584 841.047852,504.020782 837.675415,495.915375 
	C834.037964,487.173004 825.910522,486.483459 817.953369,486.143524 
	C812.132202,485.894836 806.292053,486.035431 800.461121,486.088623 
	C792.453369,486.161652 789.310608,488.489807 787.327271,496.289368 
	C782.488525,515.317444 777.666748,534.352234 773.192688,553.467346 
	C772.614807,555.936218 773.324097,560.480103 774.864197,561.265869 
	C777.330872,562.524475 781.298645,562.204956 784.046875,561.098877 
	C786.093201,560.275330 787.214233,557.152954 788.950562,554.299377 
M652.631958,560.289917 
	C658.078674,546.000366 669.695557,546.129456 682.049255,547.454956 
	C689.817139,548.288513 689.600464,548.065552 691.061523,555.743347 
	C691.525757,558.182922 693.250427,561.601318 695.169739,562.234802 
	C697.535522,563.015808 701.447632,562.191406 703.330017,560.523926 
	C705.363220,558.722839 706.840942,555.123352 706.774719,552.351013 
	C706.600708,545.069946 705.488037,537.808411 704.690186,530.545593 
	C703.366089,518.493347 702.142822,506.427246 700.596069,494.403107 
	C699.450378,485.496033 692.036987,481.982391 684.571167,487.052917 
	C681.264771,489.298492 678.546143,492.732086 676.269287,496.104736 
	C671.251343,503.537750 666.667969,511.264984 661.935791,518.889893 
	C655.099670,529.904968 648.083069,540.817749 641.638794,552.058105 
	C640.332336,554.336853 640.119080,558.515747 641.369019,560.685242 
	C643.197754,563.859375 647.102661,563.333069 650.382385,561.837463 
	C650.981873,561.564087 651.511108,561.136719 652.631958,560.289917 
M916.389587,543.927673 
	C915.737366,547.018066 914.636536,550.097961 914.564392,553.201843 
	C914.497803,556.064941 914.779053,560.831970 916.250305,561.424316 
	C918.977966,562.522583 923.084351,561.987305 925.853516,560.604309 
	C927.935120,559.564636 929.450623,556.305176 930.141235,553.743469 
	C934.511353,537.533752 938.699890,521.271851 942.646240,504.954010 
	C943.403992,501.820557 944.688538,500.817688 947.675659,500.921326 
	C950.831787,501.030792 954.038391,501.079620 957.153381,500.650360 
	C961.590515,500.038849 964.483765,495.805084 964.167542,491.167389 
	C963.828674,486.198303 960.306030,486.059570 956.628235,486.061981 
	C944.965149,486.069641 933.298157,485.900146 921.641785,486.180450 
	C918.825745,486.248169 915.189087,486.995697 913.473633,488.854980 
	C911.513123,490.979889 910.455688,494.756897 910.677612,497.689514 
	C910.771667,498.932495 915.036316,500.320801 917.564636,500.796539 
	C920.421936,501.334167 923.458191,500.920471 927.217224,500.920471 
	C923.567139,515.499939 920.107544,529.318665 916.389587,543.927673 
z"/>
<path fill="#4B8ABF" opacity="1.000000" stroke="none" 
	d="
M421.992859,586.104553 
	C394.502258,586.104492 367.509186,585.978149 340.518738,586.186218 
	C333.058960,586.243713 325.949036,586.561707 323.210938,577.023987 
	C322.722900,576.943787 322.234863,576.863647 321.746826,576.783447 
	C320.386505,578.648010 319.416901,581.286621 317.582703,582.212585 
	C314.004364,584.019104 309.952179,585.911438 306.079071,585.947693 
	C274.924347,586.239624 243.764938,585.998230 212.608643,586.192017 
	C206.056534,586.232788 201.083313,584.812073 199.432709,577.736511 
	C198.650650,577.836975 197.947952,577.721863 197.758377,577.981506 
	C192.439758,585.265747 185.032852,586.310913 176.580292,586.221863 
	C146.592514,585.905762 116.599274,586.116211 86.608101,586.112732 
	C77.817871,586.111755 73.584641,580.571594 75.717789,572.012939 
	C83.606766,540.360535 91.491867,508.707214 99.333275,477.043060 
	C101.224388,469.406586 109.451019,462.530487 117.394600,462.645996 
	C149.211853,463.108582 181.039810,462.830627 212.863800,462.837463 
	C220.476395,462.839081 223.043259,464.976288 224.446594,472.931915 
	C225.482285,471.673126 226.235672,470.715820 227.032440,469.796082 
	C230.897766,465.334167 235.372162,462.714996 241.689514,462.741089 
	C273.842651,462.873932 305.997223,462.709198 338.151031,462.586121 
	C342.238434,462.570465 345.200897,464.049774 346.919403,467.837006 
	C347.521729,469.164429 348.230621,470.443451 349.112549,472.181549 
	C354.117096,465.059113 360.484009,462.573822 368.867920,462.680237 
	C399.687256,463.071503 430.514557,462.830505 461.338837,462.841461 
	C470.256744,462.844635 474.453003,468.078766 472.290771,476.799164 
	C464.391449,508.657715 456.439240,540.503235 448.419922,572.331848 
	C446.309113,580.709595 439.140442,586.061218 430.488861,586.100952 
	C427.823059,586.113220 425.157227,586.103882 421.992859,586.104553 
M177.131363,544.580139 
	C181.141769,538.216187 184.862732,531.764404 185.215088,523.938049 
	C185.412216,519.559692 183.341217,517.238281 179.147568,517.122925 
	C172.657516,516.944275 166.154556,516.963196 159.666138,517.175659 
	C157.936005,517.232300 155.511780,517.795227 154.675095,519.004028 
	C152.822159,521.681152 150.624680,524.939453 150.686569,527.916626 
	C150.765503,531.712402 154.732758,532.085999 158.065308,532.036682 
	C160.656235,531.998352 163.248184,532.029053 166.759888,532.029053 
	C165.716324,534.729858 165.310760,536.695374 164.291611,538.261536 
	C159.399734,545.778809 152.164261,548.952759 143.423340,548.460571 
	C134.570862,547.962158 129.891846,543.319641 129.881958,534.444336 
	C129.876495,529.548157 130.565140,524.359131 132.275925,519.803528 
	C139.710068,500.007233 158.383209,494.205261 172.334625,505.306488 
	C176.732010,508.805511 181.754227,507.655121 184.568802,503.521362 
	C187.457916,499.278076 186.652054,494.652008 182.216461,491.299835 
	C172.831207,484.206909 162.111954,483.801025 151.212692,485.911652 
	C133.224091,489.395142 114.866371,508.289459 112.517281,531.719421 
	C110.747086,549.375427 122.102127,563.386719 139.818939,563.713257 
	C155.364624,563.999817 167.298904,557.075317 177.131363,544.580139 
M236.420425,540.284790 
	C238.613815,553.772827 246.211700,561.321289 259.562195,563.276123 
	C279.557739,566.203918 301.706573,551.110535 306.966553,530.852417 
	C309.726166,520.223999 312.292206,509.545013 314.905243,498.878937 
	C315.417053,496.789642 316.003479,494.666779 316.101959,492.538422 
	C316.330536,487.600769 312.986877,484.795166 308.125214,485.672211 
	C302.533142,486.681000 299.566742,490.269470 298.250061,495.630676 
	C295.355469,507.416718 292.524078,519.223328 289.321960,530.927185 
	C286.941650,539.627258 281.152222,545.252625 272.324738,547.525269 
	C260.606689,550.542053 252.585220,542.927490 255.299881,531.164368 
	C258.066345,519.176819 261.304565,507.296112 263.939484,495.281647 
	C264.469940,492.862915 264.108215,488.835815 262.576813,487.719788 
	C260.455536,486.173889 256.467438,485.672485 253.963547,486.590912 
	C251.405258,487.529327 248.470383,490.401703 247.779282,492.983826 
	C243.656799,508.386993 240.135773,523.951111 236.420425,540.284790 
M392.331604,515.679993 
	C389.160065,528.588074 385.834229,541.462036 382.969055,554.437744 
	C382.491974,556.598511 383.313049,560.487671 384.788452,561.299927 
	C387.004089,562.519653 390.846252,562.699097 393.042816,561.529480 
	C395.499207,560.221497 397.867218,557.172119 398.590271,554.435791 
	C403.939392,534.192383 408.987122,513.866394 413.855194,493.500702 
	C415.247131,487.677521 410.742584,483.752625 405.243134,486.225098 
	C402.297302,487.549561 399.255096,490.690643 398.165955,493.702423 
	C395.691467,500.545013 394.397736,507.814575 392.331604,515.679993 
z"/>
<path fill="#F5FBFC" opacity="1.000000" stroke="none" 
	d="
M589.239197,561.097412 
	C588.699707,561.382507 588.160156,561.667603 586.916931,562.041260 
	C584.429688,562.283203 582.646240,562.436462 580.862732,562.589722 
	C580.651794,562.500366 580.440857,562.411011 579.911926,562.022339 
	C579.426819,561.442627 579.204590,561.388794 578.927307,561.561462 
	C578.395752,560.903015 577.864258,560.244507 577.269226,558.863403 
	C577.258545,555.705017 577.311279,553.269348 577.364014,550.833679 
	C577.534729,549.818665 577.705505,548.803650 578.043030,547.107300 
	C578.218323,544.944397 578.226807,543.462891 578.235229,541.981323 
	C578.430115,540.548279 578.624878,539.115234 579.100159,537.091125 
	C579.380249,535.276489 579.379883,534.052917 579.379517,532.829346 
	C579.452820,532.458557 579.526123,532.087769 579.700989,531.062683 
	C579.732605,529.893555 579.662659,529.378784 579.592651,528.863953 
	C579.681946,528.140320 579.771240,527.416687 580.146545,526.053589 
	C580.766968,521.484985 581.101379,517.555847 581.435852,513.626770 
	C581.080139,513.508789 580.724426,513.390808 580.368713,513.272888 
	C579.253662,515.517212 578.138611,517.761597 577.023682,520.005920 
	C570.755798,531.751160 564.612000,543.565674 558.125000,555.188538 
	C556.666199,557.802246 554.408325,560.535522 551.824646,561.844727 
	C545.282043,565.159973 540.411316,561.871216 540.152283,554.544067 
	C539.752441,543.232239 539.388916,531.919067 538.985046,520.607422 
	C538.923340,518.879089 538.727966,517.155579 537.420959,515.212280 
	C534.246094,523.126221 531.056091,531.034180 527.901611,538.956238 
	C525.748596,544.363220 523.911621,549.917542 521.405334,555.153198 
	C520.179749,557.713562 518.155579,560.674622 515.752869,561.671997 
	C513.266113,562.704407 509.116669,562.584961 507.135681,561.076538 
	C505.560974,559.877563 505.197540,555.515991 505.976959,553.100830 
	C508.065002,546.630676 511.058319,540.452881 513.687866,534.157166 
	C519.073975,521.261353 524.377930,508.330261 529.913452,495.498932 
	C530.930969,493.140350 532.882629,491.184784 534.873718,488.816833 
	C535.635254,488.443787 535.749634,488.210419 535.687500,487.890320 
	C536.014526,487.743103 536.341614,487.595886 537.241577,487.241119 
	C539.582092,486.562164 541.349609,486.090790 543.117188,485.619385 
	C543.834778,485.724518 544.552368,485.829681 545.797302,486.218689 
	C546.892273,486.650757 547.459900,486.798920 548.027527,486.947083 
	C549.115417,488.197693 550.203247,489.448364 551.493408,491.381378 
	C551.916443,494.389801 552.137207,496.715881 552.357971,499.041962 
	C552.489563,500.136383 552.621155,501.230835 552.619507,502.822632 
	C552.644165,503.880463 552.802124,504.440857 552.960083,505.001282 
	C552.980225,506.061615 553.000366,507.121979 553.012634,508.845581 
	C553.052368,509.685028 553.099976,509.861176 553.147583,510.037323 
	C553.206360,513.352539 553.265076,516.667786 553.277771,520.842163 
	C553.598633,525.571289 553.965576,529.441223 554.332581,533.311157 
	C554.687988,533.387207 555.043396,533.463196 555.398865,533.539246 
	C556.697510,530.811890 557.996155,528.084534 559.294800,525.357178 
	C559.294800,525.357178 559.300232,525.289368 559.624023,525.134521 
	C561.327576,522.341553 562.707336,519.703308 564.087036,517.065125 
	C564.391602,516.577087 564.696167,516.088989 565.347107,515.170471 
	C566.113770,513.819031 566.534058,512.898010 566.954346,511.977020 
	C566.954346,511.977020 567.004944,511.991364 567.266968,511.799011 
	C568.271362,510.042114 569.013672,508.477631 569.756042,506.913116 
	C570.872620,504.938141 571.989258,502.963165 573.498535,500.514069 
	C574.317688,499.070648 574.744202,498.101349 575.170654,497.132080 
	C575.386292,496.866882 575.601990,496.601685 576.092896,496.023132 
	C576.632263,495.507568 576.701233,495.252563 576.575073,494.944641 
	C576.748474,494.592072 576.921936,494.239471 577.466431,493.479401 
	C578.212341,492.381409 578.587158,491.690857 578.961914,491.000305 
	C579.866516,490.188507 580.771057,489.376678 582.222778,488.299011 
	C584.181152,487.356659 585.592346,486.680145 587.003601,486.003662 
	C587.724976,485.911560 588.446350,485.819458 589.871826,485.807617 
	C593.104858,487.579468 595.633728,489.270996 598.162659,490.962524 
	C598.226807,491.387939 598.290955,491.813354 598.287354,492.951721 
	C598.264648,494.813080 598.309570,495.961517 598.354492,497.109985 
	C598.280823,497.843201 598.207153,498.576385 597.851440,499.952332 
	C597.407715,504.739868 597.245972,508.884674 597.084229,513.029480 
	C597.032166,513.466431 596.980042,513.903442 596.682495,514.986694 
	C596.235718,520.096191 596.034485,524.559387 595.833252,529.022583 
	C595.592834,530.758301 595.352478,532.494019 595.001953,535.010071 
	C594.717224,538.896790 594.542664,542.003235 594.368164,545.109619 
	C594.274597,545.839600 594.181091,546.569580 593.831543,547.927856 
	C593.574219,550.085754 593.573059,551.615356 593.571838,553.145020 
	C593.131592,554.551270 592.691284,555.957458 591.931946,557.806946 
	C591.344421,558.464844 591.265686,558.734863 591.376648,559.060242 
	C591.077576,559.362183 590.778503,559.664185 590.073792,560.201111 
	C589.386902,560.566650 589.243896,560.787109 589.239197,561.097412 
z"/>
<path fill="#F5FBFC" opacity="1.000000" stroke="none" 
	d="
M788.848999,554.676880 
	C787.214233,557.152954 786.093201,560.275330 784.046875,561.098877 
	C781.298645,562.204956 777.330872,562.524475 774.864197,561.265869 
	C773.324097,560.480103 772.614807,555.936218 773.192688,553.467346 
	C777.666748,534.352234 782.488525,515.317444 787.327271,496.289368 
	C789.310608,488.489807 792.453369,486.161652 800.461121,486.088623 
	C806.292053,486.035431 812.132202,485.894836 817.953369,486.143524 
	C825.910522,486.483459 834.037964,487.173004 837.675415,495.915375 
	C841.047852,504.020782 837.543091,517.048584 830.163025,522.686218 
	C825.513855,526.237732 819.954041,528.597046 814.084839,531.894531 
	C817.510193,537.025818 821.268677,542.602051 824.969849,548.216125 
	C828.512390,553.589539 827.253113,558.640137 821.709412,561.550232 
	C816.777222,564.139343 813.210327,563.222656 810.349426,558.381104 
	C805.367371,549.949585 800.500916,541.449707 794.859619,531.726562 
	C792.663574,540.115540 790.807068,547.207458 788.848999,554.676880 
M800.157043,509.602905 
	C799.450867,512.770142 798.744690,515.937378 797.931091,519.586426 
	C802.741333,519.586426 807.034790,519.989075 811.218628,519.483643 
	C816.351990,518.863464 820.989502,514.158691 821.086243,509.156372 
	C821.132019,506.791901 819.524170,502.756073 817.894165,502.312653 
	C813.398376,501.089569 808.394226,500.703339 803.811462,501.411835 
	C802.281555,501.648346 801.418457,506.197571 800.157043,509.602905 
z"/>
<path fill="#F5FBFC" opacity="1.000000" stroke="none" 
	d="
M652.352356,560.535156 
	C651.511108,561.136719 650.981873,561.564087 650.382385,561.837463 
	C647.102661,563.333069 643.197754,563.859375 641.369019,560.685242 
	C640.119080,558.515747 640.332336,554.336853 641.638794,552.058105 
	C648.083069,540.817749 655.099670,529.904968 661.935791,518.889893 
	C666.667969,511.264984 671.251343,503.537750 676.269287,496.104736 
	C678.546143,492.732086 681.264771,489.298492 684.571167,487.052917 
	C692.036987,481.982391 699.450378,485.496033 700.596069,494.403107 
	C702.142822,506.427246 703.366089,518.493347 704.690186,530.545593 
	C705.488037,537.808411 706.600708,545.069946 706.774719,552.351013 
	C706.840942,555.123352 705.363220,558.722839 703.330017,560.523926 
	C701.447632,562.191406 697.535522,563.015808 695.169739,562.234802 
	C693.250427,561.601318 691.525757,558.182922 691.061523,555.743347 
	C689.600464,548.065552 689.817139,548.288513 682.049255,547.454956 
	C669.695557,546.129456 658.078674,546.000366 652.352356,560.535156 
M670.955322,529.570435 
	C671.169922,530.595337 671.358398,532.507751 671.602905,532.514954 
	C677.327271,532.682983 683.057617,532.645081 689.251953,532.645081 
	C688.497803,522.360168 687.808167,512.955383 687.118530,503.550659 
	C686.669434,503.526398 686.220276,503.502136 685.771179,503.477875 
	C680.954834,511.955841 676.138489,520.433777 670.955322,529.570435 
z"/>
<path fill="#F4FAFC" opacity="1.000000" stroke="none" 
	d="
M916.518738,543.532471 
	C920.107544,529.318665 923.567139,515.499939 927.217224,500.920471 
	C923.458191,500.920471 920.421936,501.334167 917.564636,500.796539 
	C915.036316,500.320801 910.771667,498.932495 910.677612,497.689514 
	C910.455688,494.756897 911.513123,490.979889 913.473633,488.854980 
	C915.189087,486.995697 918.825745,486.248169 921.641785,486.180450 
	C933.298157,485.900146 944.965149,486.069641 956.628235,486.061981 
	C960.306030,486.059570 963.828674,486.198303 964.167542,491.167389 
	C964.483765,495.805084 961.590515,500.038849 957.153381,500.650360 
	C954.038391,501.079620 950.831787,501.030792 947.675659,500.921326 
	C944.688538,500.817688 943.403992,501.820557 942.646240,504.954010 
	C938.699890,521.271851 934.511353,537.533752 930.141235,553.743469 
	C929.450623,556.305176 927.935120,559.564636 925.853516,560.604309 
	C923.084351,561.987305 918.977966,562.522583 916.250305,561.424316 
	C914.779053,560.831970 914.497803,556.064941 914.564392,553.201843 
	C914.636536,550.097961 915.737366,547.018066 916.518738,543.532471 
z"/>
<path fill="#88ABC8" opacity="1.000000" stroke="none" 
	d="
M558.915955,525.300293 
	C557.996155,528.084534 556.697510,530.811890 555.398865,533.539246 
	C555.043396,533.463196 554.687988,533.387207 554.332581,533.311157 
	C553.965576,529.441223 553.598633,525.571289 553.362915,521.282227 
	C553.975525,521.598938 554.887146,522.348694 554.863953,523.068298 
	C554.761841,526.238953 556.525574,525.863953 558.915955,525.300293 
z"/>
<path fill="#88ABC8" opacity="1.000000" stroke="none" 
	d="
M577.394775,520.048096 
	C578.138611,517.761597 579.253662,515.517212 580.368713,513.272888 
	C580.724426,513.390808 581.080139,513.508789 581.435852,513.626770 
	C581.101379,517.555847 580.766968,521.484985 580.130981,525.688477 
	C579.141602,524.005310 578.453735,522.047791 577.394775,520.048096 
z"/>
<path fill="#88ABC8" opacity="1.000000" stroke="none" 
	d="
M597.457092,512.913086 
	C597.245972,508.884674 597.407715,504.739868 597.876099,500.321289 
	C598.065125,504.297272 597.947510,508.546967 597.457092,512.913086 
z"/>
<path fill="#88ABC8" opacity="1.000000" stroke="none" 
	d="
M596.134399,528.756592 
	C596.034485,524.559387 596.235718,520.096191 596.691467,515.317505 
	C596.775818,519.498169 596.605652,523.994385 596.134399,528.756592 
z"/>
<path fill="#88ABC8" opacity="1.000000" stroke="none" 
	d="
M598.394592,490.737488 
	C595.633728,489.270996 593.104858,487.579468 590.224792,485.720398 
	C593.595825,483.541016 597.598511,485.809021 598.394592,490.737488 
z"/>
<path fill="#88ABC8" opacity="1.000000" stroke="none" 
	d="
M563.728455,517.090881 
	C562.707336,519.703308 561.327576,522.341553 559.649597,525.112061 
	C560.690796,522.535156 562.030334,519.825867 563.728455,517.090881 
z"/>
<path fill="#88ABC8" opacity="1.000000" stroke="none" 
	d="
M594.699219,544.951172 
	C594.542664,542.003235 594.717224,538.896790 595.000732,535.384399 
	C595.083252,538.249817 595.056824,541.521301 594.699219,544.951172 
z"/>
<path fill="#88ABC8" opacity="1.000000" stroke="none" 
	d="
M580.995483,562.866943 
	C582.646240,562.436462 584.429688,562.283203 586.657593,562.204895 
	C585.637390,566.208557 583.410645,564.868958 580.995483,562.866943 
z"/>
<path fill="#88ABC8" opacity="1.000000" stroke="none" 
	d="
M542.980591,485.309387 
	C541.349609,486.090790 539.582092,486.562164 537.425659,487.042633 
	C537.903259,483.342072 540.147949,483.532349 542.980591,485.309387 
z"/>
<path fill="#88ABC8" opacity="1.000000" stroke="none" 
	d="
M586.776001,485.743713 
	C585.592346,486.680145 584.181152,487.356659 582.426392,488.070984 
	C582.392700,485.228699 584.077271,484.687317 586.776001,485.743713 
z"/>
<path fill="#88ABC8" opacity="1.000000" stroke="none" 
	d="
M577.081665,551.035767 
	C577.311279,553.269348 577.258545,555.705017 577.168884,558.556885 
	C577.021118,556.394714 576.910217,553.816284 577.081665,551.035767 
z"/>
<path fill="#88ABC8" opacity="1.000000" stroke="none" 
	d="
M593.856812,552.996338 
	C593.573059,551.615356 593.574219,550.085754 593.854919,548.297546 
	C594.136841,549.641907 594.139282,551.244812 593.856812,552.996338 
z"/>
<path fill="#88ABC8" opacity="1.000000" stroke="none" 
	d="
M569.421875,506.997437 
	C569.013672,508.477631 568.271362,510.042114 567.248779,511.779785 
	C567.674988,510.329224 568.381348,508.705505 569.421875,506.997437 
z"/>
<path fill="#88ABC8" opacity="1.000000" stroke="none" 
	d="
M577.945435,542.188721 
	C578.226807,543.462891 578.218323,544.944397 578.033813,546.718323 
	C577.790405,545.472473 577.723083,543.934326 577.945435,542.188721 
z"/>
<path fill="#88ABC8" opacity="1.000000" stroke="none" 
	d="
M552.568359,498.808289 
	C552.137207,496.715881 551.916443,494.389801 551.685669,491.631104 
	C552.043396,493.657227 552.411133,496.115906 552.568359,498.808289 
z"/>
<path fill="#88ABC8" opacity="1.000000" stroke="none" 
	d="
M598.642456,497.000153 
	C598.309570,495.961517 598.264648,494.813080 598.384399,493.259979 
	C598.676270,494.200348 598.803406,495.545319 598.642456,497.000153 
z"/>
<path fill="#88ABC8" opacity="1.000000" stroke="none" 
	d="
M579.116760,532.975830 
	C579.379883,534.052917 579.380249,535.276489 579.085693,536.727661 
	C578.811890,535.677551 578.832947,534.399902 579.116760,532.975830 
z"/>
<path fill="#88ABC8" opacity="1.000000" stroke="none" 
	d="
M566.637329,512.019653 
	C566.534058,512.898010 566.113770,513.819031 565.413574,514.884888 
	C565.529236,514.040588 565.924744,513.051392 566.637329,512.019653 
z"/>
<path fill="#88ABC8" opacity="1.000000" stroke="none" 
	d="
M574.797852,497.158020 
	C574.744202,498.101349 574.317688,499.070648 573.601624,500.192627 
	C573.683044,499.291565 574.054077,498.237732 574.797852,497.158020 
z"/>
<path fill="#88ABC8" opacity="1.000000" stroke="none" 
	d="
M547.996094,486.663025 
	C547.459900,486.798920 546.892273,486.650757 546.159119,486.248169 
	C546.650635,486.122162 547.307678,486.250580 547.996094,486.663025 
z"/>
<path fill="#88ABC8" opacity="1.000000" stroke="none" 
	d="
M579.360596,528.949280 
	C579.662659,529.378784 579.732605,529.893555 579.667175,530.779541 
	C579.397400,530.445312 579.262939,529.739929 579.360596,528.949280 
z"/>
<path fill="#88ABC8" opacity="1.000000" stroke="none" 
	d="
M578.627686,491.049500 
	C578.587158,491.690857 578.212341,492.381409 577.553284,493.197083 
	C577.610474,492.581055 577.951904,491.839844 578.627686,491.049500 
z"/>
<path fill="#88ABC8" opacity="1.000000" stroke="none" 
	d="
M553.186401,504.848511 
	C552.802124,504.440857 552.644165,503.880463 552.666443,503.153076 
	C553.035339,503.556000 553.223999,504.125885 553.186401,504.848511 
z"/>
<path fill="#88ABC8" opacity="1.000000" stroke="none" 
	d="
M535.521606,487.954346 
	C535.749634,488.210419 535.635254,488.443787 535.136230,488.580170 
	C535.003174,488.333649 535.145691,488.149811 535.521606,487.954346 
z"/>
<path fill="#88ABC8" opacity="1.000000" stroke="none" 
	d="
M576.413330,495.046570 
	C576.701233,495.252563 576.632263,495.507568 576.165833,495.774231 
	C575.960876,495.567444 576.056946,495.337372 576.413330,495.046570 
z"/>
<path fill="#88ABC8" opacity="1.000000" stroke="none" 
	d="
M591.553284,558.947754 
	C591.265686,558.734863 591.344421,558.464844 591.817322,558.158081 
	C592.033691,558.363953 591.936401,558.620300 591.553284,558.947754 
z"/>
<path fill="#88ABC8" opacity="1.000000" stroke="none" 
	d="
M589.416382,561.045776 
	C589.243896,560.787109 589.386902,560.566650 589.874023,560.449585 
	C589.984619,560.701233 589.822449,560.878235 589.416382,561.045776 
z"/>
<path fill="#88ABC8" opacity="1.000000" stroke="none" 
	d="
M579.003906,561.686646 
	C579.204590,561.388794 579.426819,561.442627 579.584961,561.916626 
	C579.378723,562.063904 579.213562,561.964417 579.003906,561.686646 
z"/>
<path fill="#88ABC8" opacity="1.000000" stroke="none" 
	d="
M553.292603,509.930206 
	C553.099976,509.861176 553.052368,509.685028 553.059326,509.240601 
	C553.221802,509.255951 553.329773,509.539520 553.292603,509.930206 
z"/>
<path fill="#F5FBFC" opacity="1.000000" stroke="none" 
	d="
M176.928467,544.875549 
	C167.298904,557.075317 155.364624,563.999817 139.818939,563.713257 
	C122.102127,563.386719 110.747086,549.375427 112.517281,531.719421 
	C114.866371,508.289459 133.224091,489.395142 151.212692,485.911652 
	C162.111954,483.801025 172.831207,484.206909 182.216461,491.299835 
	C186.652054,494.652008 187.457916,499.278076 184.568802,503.521362 
	C181.754227,507.655121 176.732010,508.805511 172.334625,505.306488 
	C158.383209,494.205261 139.710068,500.007233 132.275925,519.803528 
	C130.565140,524.359131 129.876495,529.548157 129.881958,534.444336 
	C129.891846,543.319641 134.570862,547.962158 143.423340,548.460571 
	C152.164261,548.952759 159.399734,545.778809 164.291611,538.261536 
	C165.310760,536.695374 165.716324,534.729858 166.759888,532.029053 
	C163.248184,532.029053 160.656235,531.998352 158.065308,532.036682 
	C154.732758,532.085999 150.765503,531.712402 150.686569,527.916626 
	C150.624680,524.939453 152.822159,521.681152 154.675095,519.004028 
	C155.511780,517.795227 157.936005,517.232300 159.666138,517.175659 
	C166.154556,516.963196 172.657516,516.944275 179.147568,517.122925 
	C183.341217,517.238281 185.412216,519.559692 185.215088,523.938049 
	C184.862732,531.764404 181.141769,538.216187 176.928467,544.875549 
z"/>
<path fill="#F5FBFC" opacity="1.000000" stroke="none" 
	d="
M236.416656,539.872986 
	C240.135773,523.951111 243.656799,508.386993 247.779282,492.983826 
	C248.470383,490.401703 251.405258,487.529327 253.963547,486.590912 
	C256.467438,485.672485 260.455536,486.173889 262.576813,487.719788 
	C264.108215,488.835815 264.469940,492.862915 263.939484,495.281647 
	C261.304565,507.296112 258.066345,519.176819 255.299881,531.164368 
	C252.585220,542.927490 260.606689,550.542053 272.324738,547.525269 
	C281.152222,545.252625 286.941650,539.627258 289.321960,530.927185 
	C292.524078,519.223328 295.355469,507.416718 298.250061,495.630676 
	C299.566742,490.269470 302.533142,486.681000 308.125214,485.672211 
	C312.986877,484.795166 316.330536,487.600769 316.101959,492.538422 
	C316.003479,494.666779 315.417053,496.789642 314.905243,498.878937 
	C312.292206,509.545013 309.726166,520.223999 306.966553,530.852417 
	C301.706573,551.110535 279.557739,566.203918 259.562195,563.276123 
	C246.211700,561.321289 238.613815,553.772827 236.416656,539.872986 
z"/>
<path fill="#F5FBFC" opacity="1.000000" stroke="none" 
	d="
M392.477814,515.295288 
	C394.397736,507.814575 395.691467,500.545013 398.165955,493.702423 
	C399.255096,490.690643 402.297302,487.549561 405.243134,486.225098 
	C410.742584,483.752625 415.247131,487.677521 413.855194,493.500702 
	C408.987122,513.866394 403.939392,534.192383 398.590271,554.435791 
	C397.867218,557.172119 395.499207,560.221497 393.042816,561.529480 
	C390.846252,562.699097 387.004089,562.519653 384.788452,561.299927 
	C383.313049,560.487671 382.491974,556.598511 382.969055,554.437744 
	C385.834229,541.462036 389.160065,528.588074 392.477814,515.295288 
z"/>
<path fill="#558FBF" opacity="1.000000" stroke="none" 
	d="
M800.203735,509.189087 
	C801.418457,506.197571 802.281555,501.648346 803.811462,501.411835 
	C808.394226,500.703339 813.398376,501.089569 817.894165,502.312653 
	C819.524170,502.756073 821.132019,506.791901 821.086243,509.156372 
	C820.989502,514.158691 816.351990,518.863464 811.218628,519.483643 
	C807.034790,519.989075 802.741333,519.586426 797.931091,519.586426 
	C798.744690,515.937378 799.450867,512.770142 800.203735,509.189087 
z"/>
<path fill="#5890BE" opacity="1.000000" stroke="none" 
	d="
M671.138733,529.241089 
	C676.138489,520.433777 680.954834,511.955841 685.771179,503.477875 
	C686.220276,503.502136 686.669434,503.526398 687.118530,503.550659 
	C687.808167,512.955383 688.497803,522.360168 689.251953,532.645081 
	C683.057617,532.645081 677.327271,532.682983 671.602905,532.514954 
	C671.358398,532.507751 671.169922,530.595337 671.138733,529.241089 
z"/>
</svg>